# AST/ASF file generated using VICON BodyLanguage
# -----------------------------------------------
:version 1.10
:name VICON
:units
  mass 1.0
  length 0.45
  angle deg
:documentation
   .ast/.asf automatically generated from VICON data using
   VICON BodyBuilder and BodyLanguage model FoxedUp or BRILLIANT.MOD
:root
   order TX TY TZ RX RY RZ
   axis XYZ
   position 0 0 0  
   orientation 0 0 0 
:bonedata
  begin
     id 1 
     name lhipjoint
     direction 0.597014 -0.743513 0.301268 
     length 2.48253 
     axis 0 0 0  XYZ
  end
  begin
     id 2 
     name lfemur
     direction 0.34202 -0.939693 0  
     length 7.51389  
     axis 0 0 20  XYZ
    dof rx ry rz
    limits (-160.0 20.0)
           (-70.0 70.0)
           (-60.0 70.0)
  end
  begin
     id 3 
     name ltibia
     direction 0.34202 -0.939693 0   
     length 7.54147   
     axis 0 0 20   XYZ
    dof rx
    limits (-10.0 170.0)
  end
  begin
     id 4 
     name lfoot
     direction 0.10378 -0.285133 0.952853   
     length 2.2132   
     axis -90 7.62852e-016 20   XYZ
    dof rx rz
    limits (-45.0 90.0)
           (-70.0 20.0)
  end
  begin
     id 5 
     name ltoes
     direction 1.5354e-011 -4.2171e-011 1   
     length 1.10362   
     axis -90 7.62852e-016 20   XYZ
    dof rx
    limits (-90.0 20.0)
  end
  begin
     id 6 
     name rhipjoint
     direction -0.591912 -0.747009 0.302685   
     length 2.47092  
     axis 0 0 0  XYZ 
  end
  begin
     id 7 
     name rfemur
     direction -0.34202 -0.939693 0   
     length 7.69991   
     axis 0 0 -20   XYZ
    dof rx ry rz
    limits (-160.0 20.0)
           (-70.0 70.0)
           (-70.0 60.0)
  end
  begin
     id 8 
     name rtibia
     direction -0.34202 -0.939693 0   
     length 7.40774   
     axis 0 0 -20   XYZ
    dof rx
    limits (-10.0 170.0)
 end
 begin
     id 9 
     name rfoot
     direction -0.0916245 -0.251736 0.963449   
     length 2.08235  
     axis -90 -7.62852e-016 -20   XYZ
    dof rx rz
    limits (-45.0 90.0)
           (-20.0 70.0)
  end
  begin
     id 10 
     name rtoes
     direction -1.53527e-011 -4.21878e-011 1   
     length 1.04369   
     axis -90 -7.62852e-016 -20   XYZ
    dof rx
    limits (-90.0 20.0)
  end
  begin
     id 11 
     name lowerback
     direction -0.0122523 0.991496 -0.12956   
     length 2.10814   
     axis 0 0 0   XYZ
    dof rx ry rz
    limits (-20.0 45.0)
           (-30.0 30.0)
           (-30.0 30.0)
  end
  begin
     id 12 
     name upperback
     direction 0.012378 0.999784 -0.0167122   
     length 2.11728   
     axis 0 0 0   XYZ
    dof rx ry rz
    limits (-20.0 45.0)
           (-30.0 30.0)
           (-30.0 30.0)
  end
  begin
     id 13 
     name thorax
     direction 0.0187236 0.998893 0.0431542   
     length 2.15267   
     axis 0 0 0   XYZ
    dof rx ry rz
    limits (-20.0 45.0)
           (-30.0 30.0)
           (-30.0 30.0)
  end
  begin
     id 14 
     name lowerneck
     direction 0.0165467 0.987304 0.157979   
     length 1.72129   
     axis 0 0 0   XYZ
    dof rx ry rz
    limits (-20.0 45.0)
           (-30.0 30.0)
           (-30.0 30.0)
  end
  begin
     id 15 
     name upperneck
     direction -0.0560236 0.986819 -0.151818   
     length 1.75382   
     axis 0 0 0   XYZ
    dof rx ry rz
    limits (-20.0 45.0)
           (-30.0 30.0)
           (-30.0 30.0)
  end
  begin
     id 16
     name head
     direction -0.0173602 0.99745 -0.0692312  
     length 1.76328  
     axis 0 0 0   XYZ
    dof rx ry rz
    limits (-20.0 45.0)
           (-30.0 30.0)
           (-30.0 30.0)
  end
  begin
     id 17 
     name lclavicle
     direction 0.957734 0.271724 -0.094399  
     length 3.5782  
     axis 0 0 0   XYZ
    dof ry rz
    limits (-20.0 10.0)
           (0.0 20.0)
  end
  begin
     id 18 
     name lhumerus
     direction 1 -4.48963e-011 1.21581e-027   
     length 5.25525   
     axis 180 -30 -90   XYZ
    dof rx ry rz
    limits (-60.0 90.0)
           (-90.0 90.0)
           (-90.0 90.0)
  end
  begin
     id 19
     name lradius
     direction 1 -4.48975e-011 3.71216e-028   
     length 3.35106   
     axis 180 -30 -90   XYZ
    dof rx
    limits (-10.0 170.0)
  end
  begin
     id 20
     name lwrist
     direction 1 -4.48957e-011 4.76535e-027   
     length 1.67553   
     axis -3.27501e-015 90 90   XYZ
    dof ry
    limits (-180.0 0.0)
 end
  begin
     id 21 
     name lhand
     direction 1 -4.49008e-011 9.52727e-027   
     length 0.574153   
     axis -6.08097e-015 90 90   XYZ
    dof rx rz
    limits (-90.0 90.0)
           (-45.0 45.0)
  end
  begin
     id 22 
     name lfingers
     direction 1 -4.48996e-011 1.90562e-026   
     length 0.462897   
     axis -1.21618e-014 90 90   XYZ
    dof rx
    limits (0.0 90.0)
  end
  begin
     id 23
     name lthumb
     direction 0.707107 -6.34908e-011 0.707107   
     length 0.66463   
     axis -90 45 -1.62303e-014   XYZ
    dof rx rz
    limits (-45.0 45.0)
           (-45.0 45.0)
  end
  begin
     id 24 
     name rclavicle
     direction -0.950439 0.29623 -0.0944132   
     length 3.45861  
     axis 0 0 0   XYZ 
    dof ry rz
    limits (-10.0 20.0)
           (-20.0 0.0)
  end
  begin
     id 25 
     name rhumerus
     direction -1 -4.48986e-011 1.25473e-027  
     length 5.33104   
     axis 180 30 90   XYZ
    dof rx ry rz
    limits (-90.0 60.0)
           (-90.0 90.0)
           (-90.0 90.0)
  end
  begin
     id 26 
     name rradius
     direction -1 -4.4894e-011 1.66273e-027   
     length 3.39883   
     axis 180 30 90   XYZ
    dof rx
    limits (-10.0 170.0)
  end
  begin
     id 27 
     name rwrist
     direction -1 -4.48946e-011 4.76572e-027   
     length 1.69941   
     axis -3.27501e-015 -90 -90   XYZ
    dof ry
    limits (-180.0 0.0)
  end
  begin
     id 28
     name rhand
     direction -1 -4.49028e-011 9.52595e-027   
     length 0.913886   
     axis -6.08097e-015 -90 -90   XYZ
    dof rx rz
    limits (-90.0 90.0)
           (-45.0 45.0)
  end
  begin
     id 29
     name rfingers
     direction -1 -4.48945e-011 1.9063e-026   
     length 0.736798   
     axis -1.21618e-014 -90 -90   XYZ
    dof rx
    limits (0.0 90.0)
  end
  begin
     id 30
     name rthumb
     direction -0.707107 -6.34966e-011 0.707107   
     length 1.0579   
     axis -90 -45 1.62303e-014   XYZ
    dof rx rz
    limits (-45.0 45.0)
           (-45.0 45.0)
  end
:hierarchy
  begin
    root lhipjoint rhipjoint lowerback
    lhipjoint lfemur
    lfemur ltibia
    ltibia lfoot
    lfoot ltoes
    rhipjoint rfemur
    rfemur rtibia
    rtibia rfoot
    rfoot rtoes
    lowerback upperback
    upperback thorax
    thorax lowerneck lclavicle rclavicle
    lowerneck upperneck
    upperneck head
    lclavicle lhumerus
    lhumerus lradius
    lradius lwrist
    lwrist lhand lthumb
    lhand lfingers
    rclavicle rhumerus
    rhumerus rradius
    rradius rwrist
    rwrist rhand rthumb
    rhand rfingers
  end

#!OML:ASF F:\VICON\USERDATA\INSTALL\rory3\rory3.ASF
:FULLY-SPECIFIED
:DEGREES
1944
root -3.26139 17.1711 38.4125 174.648 -4.71836 -177.903
lowerback 11.3184 -4.45596 -5.03581
upperback -1.50799 -6.5102 2.45544
thorax -7.09134 -2.9447 6.52714
lowerneck -19.9157 5.13861 4.37949
upperneck 20.5391 7.97541 -7.00326
head 10.3333 3.36109 -1.98946
rclavicle 2.58544e-014 -3.57812e-015
rhumerus 14.2038 -63.2121 -52.0939
rradius 138.367
rwrist 3.50811
rhand -35.3453 13.6329
rfingers 7.12502
rthumb -8.47803 -16.1769
lclavicle 2.58544e-014 -3.57812e-015
lhumerus -13.7298 -8.59215 73.2969
lradius 119.298
lwrist 8.95968
lhand -26.7477 13.5171
lfingers 7.12502
lthumb -0.176385 43.4967
rfemur -6.32482 -3.61205 23.9151
rtibia 38.913
rfoot -22.3646 -5.09499
rtoes 2.37527
lfemur -4.00054 -7.32163 -8.90246
ltibia 43.4992
lfoot -17.8281 2.12081
ltoes -25.1174
1945
root -3.18055 17.1956 38.4151 174.955 -6.42291 -177.714
lowerback 11.2305 -4.09148 -4.76038
upperback -1.12787 -5.99711 2.02033
thorax -6.77915 -2.73252 5.8005
lowerneck -21.8934 4.29538 4.56365
upperneck 20.7543 6.45176 -6.53487
head 10.6656 2.64323 -2.07184
rclavicle 5.09386e-015 -1.31198e-014
rhumerus 17.6536 -62.8207 -56.6822
rradius 137.335
rwrist 4.63542
rhand -36.0225 13.5173
rfingers 7.12502
rthumb -9.1315 -16.265
lclavicle 5.09386e-015 -1.31198e-014
lhumerus -12.8621 -9.15144 73.8103
lradius 118.535
lwrist 7.91984
lhand -27.762 13.7461
lfingers 7.12502
lthumb -1.15606 43.7227
rfemur -6.36496 -4.34114 24.4074
rtibia 38.2817
rfoot -22.2514 -5.86502
rtoes 2.83789
lfemur -5.20908 -8.14567 -8.27067
ltibia 43.8552
lfoot -16.9572 1.41471
ltoes -25.3953
1946
root -3.10304 17.2131 38.4267 174.993 -8.10015 -177.456
lowerback 11.5381 -3.91002 -4.58213
upperback -1.10721 -5.75449 1.79482
thorax -7.00263 -2.61245 5.45512
lowerneck -22.2534 3.43577 4.18108
upperneck 20.4781 5.11565 -5.86675
head 10.5132 2.05823 -1.98098
rclavicle -6.21016e-014 7.30534e-015
rhumerus 20.2702 -60.5384 -60.3989
rradius 135.902
rwrist 6.02735
rhand -36.6582 13.1412
rfingers 7.12502
rthumb -9.74488 -16.6134
lclavicle -6.21016e-014 7.30534e-015
lhumerus -12.9579 -9.39573 74.5507
lradius 118.337
lwrist 7.38479
lhand -28.0762 13.2782
lfingers 7.12502
lthumb -1.45949 43.2529
rfemur -6.18544 -4.80179 24.9839
rtibia 37.6847
rfoot -22.0412 -6.87937
rtoes 2.9016
lfemur -6.19757 -8.99298 -7.61181
ltibia 44.2
lfoot -16.2928 0.692221
ltoes -25.6717
1947
root -3.02845 17.2349 38.439 175.035 -9.83584 -177.357
lowerback 11.6168 -3.65141 -4.50897
upperback -0.932144 -5.41959 1.47232
thorax -6.93778 -2.46237 5.0178
lowerneck -22.7135 2.50368 3.81066
upperneck 20.2196 3.66764 -5.13139
head 10.395 1.42885 -1.88302
rclavicle -3.03954e-014 -3.77691e-015
rhumerus 22.6339 -58.0153 -63.785
rradius 134.045
rwrist 7.69228
rhand -37.5667 12.959
rfingers 7.12502
rthumb -10.6213 -16.7526
lclavicle -3.03954e-014 -3.77691e-015
lhumerus -12.4727 -9.8781 75.5213
lradius 118.337
lwrist 7.48169
lhand -27.4731 13.0861
lfingers 7.12502
lthumb -0.877012 43.0641
rfemur -6.03058 -5.16746 25.3872
rtibia 37.1084
rfoot -21.8081 -7.94714
rtoes 4.16162
lfemur -7.26317 -9.70611 -7.09769
ltibia 44.5524
lfoot -15.4239 -0.150754
ltoes -26.4202
1948
root -2.95412 17.2567 38.4594 175.139 -11.3893 -177.464
lowerback 11.9132 -3.32831 -4.57516
upperback -1.03571 -5.03706 1.06218
thorax -7.29226 -2.26076 4.5909
lowerneck -22.4314 1.43752 3.39047
upperneck 19.829 2.10124 -4.39089
head 10.1071 0.760322 -1.78886
rclavicle 6.50274e-014 -1.59028e-015
rhumerus 24.0764 -54.9402 -66.4247
rradius 131.692
rwrist 9.24119
rhand -38.6379 12.6247
rfingers 7.12502
rthumb -11.6545 -17.0312
lclavicle 6.50274e-014 -1.59028e-015
lhumerus -12.4332 -10.7111 76.4705
lradius 118.6
lwrist 8.39365
lhand -26.4844 14.069
lfingers 7.12502
lthumb 0.0779134 44.0487
rfemur -5.93881 -5.34656 25.5807
rtibia 36.6044
rfoot -21.7119 -8.84494
rtoes 6.0282
lfemur -8.34901 -10.3254 -6.84128
ltibia 44.8591
lfoot -14.3992 -0.889132
ltoes -26.5029
